<svg xmlns="http://www.w3.org/2000/svg" xmlns:xlink="http://www.w3.org/1999/xlink" width="800" zoomAndPan="magnify" viewBox="0 0 600 449.999984" height="600" preserveAspectRatio="xMidYMid meet" version="1.0"><defs><filter x="0%" y="0%" width="100%" height="100%" id="5e29f36be5"><feColorMatrix values="0 0 0 0 1 0 0 0 0 1 0 0 0 0 1 0 0 0 1 0" color-interpolation-filters="sRGB"/></filter><g/><mask id="0593678290"><g filter="url(#5e29f36be5)"><rect x="-60" width="720" fill="#000000" y="-44.999998" height="539.99998" fill-opacity="0.5765"/></g></mask><clipPath id="d2ad2b4e5f"><path d="M 1 0.0507812 L 138.988281 0.0507812 L 138.988281 138 L 1 138 Z M 1 0.0507812 " clip-rule="nonzero"/></clipPath><clipPath id="6c5c3e34df"><path d="M 0.988281 0.0507812 L 138.988281 0.0507812 L 138.988281 138.050781 L 0.988281 138.050781 Z M 0.988281 0.0507812 " clip-rule="nonzero"/></clipPath><clipPath id="36ed9ce21c"><rect x="0" width="139" y="0" height="139"/></clipPath></defs><g mask="url(#0593678290)"><g transform="matrix(1, 0, 0, 1, 395, 204)"><g clip-path="url(#36ed9ce21c)"><g clip-path="url(#d2ad2b4e5f)"><path fill="#e4cf1b" d="M 1.90625 0.972656 L 138.066406 0.972656 L 138.066406 137.132812 L 1.90625 137.132812 Z M 1.90625 0.972656 " fill-opacity="1" fill-rule="nonzero"/></g><g clip-path="url(#6c5c3e34df)"><path fill="#070404" d="M 138.066406 138.050781 L 1.90625 138.050781 C 1.394531 138.050781 0.988281 137.644531 0.988281 137.132812 L 0.988281 0.972656 C 0.988281 0.457031 1.394531 0.0507812 1.90625 0.0507812 L 138.066406 0.0507812 C 138.582031 0.0507812 138.988281 0.457031 138.988281 0.972656 L 138.988281 137.132812 C 138.988281 137.644531 138.582031 138.050781 138.066406 138.050781 Z M 2.828125 136.210938 L 137.148438 136.210938 L 137.148438 1.890625 L 2.828125 1.890625 Z M 2.828125 136.210938 " fill-opacity="1" fill-rule="nonzero"/></g></g></g></g><g fill="#ffffff" fill-opacity="1"><g transform="translate(80.246445, 229.834134)"><g><path d="M 21.59375 0.828125 C 18.03125 0.828125 14.90625 -0.0195312 12.21875 -1.71875 C 9.539062 -3.414062 7.453125 -5.789062 5.953125 -8.84375 C 4.453125 -11.894531 3.703125 -15.457031 3.703125 -19.53125 C 3.703125 -23.644531 4.453125 -27.234375 5.953125 -30.296875 C 7.453125 -33.367188 9.539062 -35.75 12.21875 -37.4375 C 14.90625 -39.132812 18.03125 -39.984375 21.59375 -39.984375 C 25.15625 -39.984375 28.273438 -39.132812 30.953125 -37.4375 C 33.640625 -35.75 35.734375 -33.367188 37.234375 -30.296875 C 38.734375 -27.234375 39.484375 -23.644531 39.484375 -19.53125 C 39.484375 -15.457031 38.734375 -11.894531 37.234375 -8.84375 C 35.734375 -5.789062 33.640625 -3.414062 30.953125 -1.71875 C 28.273438 -0.0195312 25.15625 0.828125 21.59375 0.828125 Z M 21.59375 -4.625 C 24.300781 -4.625 26.523438 -5.316406 28.265625 -6.703125 C 30.015625 -8.097656 31.304688 -9.925781 32.140625 -12.1875 C 32.984375 -14.445312 33.40625 -16.894531 33.40625 -19.53125 C 33.40625 -22.164062 32.984375 -24.625 32.140625 -26.90625 C 31.304688 -29.1875 30.015625 -31.03125 28.265625 -32.4375 C 26.523438 -33.84375 24.300781 -34.546875 21.59375 -34.546875 C 18.882812 -34.546875 16.65625 -33.84375 14.90625 -32.4375 C 13.15625 -31.03125 11.859375 -29.1875 11.015625 -26.90625 C 10.179688 -24.625 9.765625 -22.164062 9.765625 -19.53125 C 9.765625 -16.894531 10.179688 -14.445312 11.015625 -12.1875 C 11.859375 -9.925781 13.15625 -8.097656 14.90625 -6.703125 C 16.65625 -5.316406 18.882812 -4.625 21.59375 -4.625 Z M 21.59375 -4.625 "/></g></g></g><g fill="#ffffff" fill-opacity="1"><g transform="translate(123.419847, 229.834134)"><g><path d="M 5.546875 0 L 5.546875 -39.484375 L 11.40625 -39.484375 L 11.40625 -33.515625 L 11.828125 -33.515625 C 12.523438 -35.460938 13.816406 -37.046875 15.703125 -38.265625 C 17.585938 -39.484375 19.722656 -40.09375 22.109375 -40.09375 C 23.203125 -40.09375 24.160156 -39.960938 24.984375 -39.703125 C 25.804688 -39.453125 26.523438 -39.101562 27.140625 -38.65625 L 25.078125 -33.515625 C 24.648438 -33.734375 24.148438 -33.90625 23.578125 -34.03125 C 23.003906 -34.164062 22.34375 -34.234375 21.59375 -34.234375 C 18.707031 -34.234375 16.320312 -33.351562 14.4375 -31.59375 C 12.550781 -29.84375 11.609375 -27.640625 11.609375 -24.984375 L 11.609375 0 Z M 5.546875 0 "/></g></g></g><g fill="#ffffff" fill-opacity="1"><g transform="translate(151.174166, 229.834134)"><g><path d="M 11.609375 -23.75 L 11.609375 0 L 5.546875 0 L 5.546875 -39.484375 L 11.40625 -39.484375 L 11.40625 -33.3125 L 11.921875 -33.3125 C 12.847656 -35.3125 14.253906 -36.921875 16.140625 -38.140625 C 18.023438 -39.367188 20.457031 -39.984375 23.4375 -39.984375 C 27.425781 -39.984375 30.648438 -38.757812 33.109375 -36.3125 C 35.566406 -33.863281 36.796875 -30.117188 36.796875 -25.078125 L 36.796875 0 L 30.734375 0 L 30.734375 -24.671875 C 30.734375 -27.773438 29.925781 -30.195312 28.3125 -31.9375 C 26.707031 -33.675781 24.5 -34.546875 21.6875 -34.546875 C 18.789062 -34.546875 16.382812 -33.601562 14.46875 -31.71875 C 12.5625 -29.84375 11.609375 -27.1875 11.609375 -23.75 Z M 11.609375 -23.75 "/></g></g></g><g fill="#ffffff" fill-opacity="1"><g transform="translate(193.525218, 229.834134)"><g><path d="M 22.109375 0.828125 C 18.296875 0.828125 15.015625 -0.015625 12.265625 -1.703125 C 9.515625 -3.390625 7.398438 -5.753906 5.921875 -8.796875 C 4.441406 -11.835938 3.703125 -15.382812 3.703125 -19.4375 C 3.703125 -23.476562 4.441406 -27.046875 5.921875 -30.140625 C 7.398438 -33.234375 9.472656 -35.644531 12.140625 -37.375 C 14.804688 -39.113281 17.921875 -39.984375 21.484375 -39.984375 C 23.546875 -39.984375 25.578125 -39.640625 27.578125 -38.953125 C 29.578125 -38.273438 31.398438 -37.164062 33.046875 -35.625 C 34.691406 -34.09375 36.003906 -32.066406 36.984375 -29.546875 C 37.960938 -27.035156 38.453125 -23.9375 38.453125 -20.25 L 38.453125 -17.6875 L 9.796875 -17.6875 C 9.929688 -13.46875 11.125 -10.234375 13.375 -7.984375 C 15.625 -5.742188 18.535156 -4.625 22.109375 -4.625 C 24.484375 -4.625 26.523438 -5.132812 28.234375 -6.15625 C 29.953125 -7.1875 31.195312 -8.734375 31.96875 -10.796875 L 37.828125 -9.15625 C 36.898438 -6.164062 35.050781 -3.753906 32.28125 -1.921875 C 29.507812 -0.0859375 26.117188 0.828125 22.109375 0.828125 Z M 9.796875 -22.921875 L 32.28125 -22.921875 C 32.28125 -26.265625 31.300781 -29.035156 29.34375 -31.234375 C 27.394531 -33.441406 24.773438 -34.546875 21.484375 -34.546875 C 19.171875 -34.546875 17.164062 -34.003906 15.46875 -32.921875 C 13.769531 -31.835938 12.429688 -30.410156 11.453125 -28.640625 C 10.484375 -26.867188 9.929688 -24.960938 9.796875 -22.921875 Z M 9.796875 -22.921875 "/></g></g></g><g fill="#ffffff" fill-opacity="1"><g transform="translate(235.670678, 229.834134)"><g><path d="M 5.546875 0 L 5.546875 -39.484375 L 11.40625 -39.484375 L 11.40625 -33.515625 L 11.828125 -33.515625 C 12.523438 -35.460938 13.816406 -37.046875 15.703125 -38.265625 C 17.585938 -39.484375 19.722656 -40.09375 22.109375 -40.09375 C 23.203125 -40.09375 24.160156 -39.960938 24.984375 -39.703125 C 25.804688 -39.453125 26.523438 -39.101562 27.140625 -38.65625 L 25.078125 -33.515625 C 24.648438 -33.734375 24.148438 -33.90625 23.578125 -34.03125 C 23.003906 -34.164062 22.34375 -34.234375 21.59375 -34.234375 C 18.707031 -34.234375 16.320312 -33.351562 14.4375 -31.59375 C 12.550781 -29.84375 11.609375 -27.640625 11.609375 -24.984375 L 11.609375 0 Z M 5.546875 0 "/></g></g></g><g fill="#ffffff" fill-opacity="1"><g transform="translate(263.424997, 229.834134)"><g><path d="M 33.515625 -30.640625 L 28.0625 -29.09375 C 27.53125 -30.46875 26.640625 -31.753906 25.390625 -32.953125 C 24.140625 -34.148438 22.1875 -34.75 19.53125 -34.75 C 17.113281 -34.75 15.101562 -34.195312 13.5 -33.09375 C 11.90625 -31.988281 11.109375 -30.585938 11.109375 -28.890625 C 11.109375 -27.378906 11.65625 -26.1875 12.75 -25.3125 C 13.84375 -24.4375 15.554688 -23.707031 17.890625 -23.125 L 23.75 -21.6875 C 30.738281 -19.976562 34.234375 -16.414062 34.234375 -11 C 34.234375 -8.738281 33.585938 -6.71875 32.296875 -4.9375 C 31.003906 -3.15625 29.195312 -1.75 26.875 -0.71875 C 24.5625 0.3125 21.875 0.828125 18.8125 0.828125 C 14.789062 0.828125 11.457031 -0.046875 8.8125 -1.796875 C 6.175781 -3.546875 4.503906 -6.097656 3.796875 -9.453125 L 9.5625 -10.890625 C 10.644531 -6.640625 13.691406 -4.515625 18.703125 -4.515625 C 21.535156 -4.515625 23.785156 -5.117188 25.453125 -6.328125 C 27.128906 -7.535156 27.96875 -8.988281 27.96875 -10.6875 C 27.96875 -13.476562 26.015625 -15.332031 22.109375 -16.25 L 15.53125 -17.78125 C 11.90625 -18.644531 9.25 -19.976562 7.5625 -21.78125 C 5.875 -23.59375 5.03125 -25.859375 5.03125 -28.578125 C 5.03125 -30.804688 5.660156 -32.773438 6.921875 -34.484375 C 8.179688 -36.203125 9.90625 -37.546875 12.09375 -38.515625 C 14.28125 -39.492188 16.757812 -39.984375 19.53125 -39.984375 C 23.4375 -39.984375 26.503906 -39.125 28.734375 -37.40625 C 30.972656 -35.695312 32.566406 -33.441406 33.515625 -30.640625 Z M 33.515625 -30.640625 "/></g></g></g><g fill="#ffffff" fill-opacity="1"><g transform="translate(301.253112, 229.834134)"><g><path d="M 22.71875 -39.484375 L 22.71875 -34.34375 L 14.296875 -34.34375 L 14.296875 -11.3125 C 14.296875 -9.59375 14.546875 -8.304688 15.046875 -7.453125 C 15.554688 -6.609375 16.207031 -6.046875 17 -5.765625 C 17.800781 -5.484375 18.644531 -5.34375 19.53125 -5.34375 C 20.195312 -5.34375 20.742188 -5.378906 21.171875 -5.453125 C 21.609375 -5.535156 21.953125 -5.601562 22.203125 -5.65625 L 23.4375 -0.203125 C 23.03125 -0.046875 22.457031 0.109375 21.71875 0.265625 C 20.976562 0.429688 20.046875 0.515625 18.921875 0.515625 C 17.203125 0.515625 15.523438 0.144531 13.890625 -0.59375 C 12.253906 -1.332031 10.898438 -2.453125 9.828125 -3.953125 C 8.753906 -5.460938 8.21875 -7.363281 8.21875 -9.65625 L 8.21875 -34.34375 L 2.265625 -34.34375 L 2.265625 -39.484375 L 8.21875 -39.484375 L 8.21875 -48.9375 L 14.296875 -48.9375 L 14.296875 -39.484375 Z M 22.71875 -39.484375 "/></g></g></g><g fill="#ffffff" fill-opacity="1"><g transform="translate(327.568323, 229.834134)"><g><path d="M 21.59375 0.828125 C 18.03125 0.828125 14.90625 -0.0195312 12.21875 -1.71875 C 9.539062 -3.414062 7.453125 -5.789062 5.953125 -8.84375 C 4.453125 -11.894531 3.703125 -15.457031 3.703125 -19.53125 C 3.703125 -23.644531 4.453125 -27.234375 5.953125 -30.296875 C 7.453125 -33.367188 9.539062 -35.75 12.21875 -37.4375 C 14.90625 -39.132812 18.03125 -39.984375 21.59375 -39.984375 C 25.15625 -39.984375 28.273438 -39.132812 30.953125 -37.4375 C 33.640625 -35.75 35.734375 -33.367188 37.234375 -30.296875 C 38.734375 -27.234375 39.484375 -23.644531 39.484375 -19.53125 C 39.484375 -15.457031 38.734375 -11.894531 37.234375 -8.84375 C 35.734375 -5.789062 33.640625 -3.414062 30.953125 -1.71875 C 28.273438 -0.0195312 25.15625 0.828125 21.59375 0.828125 Z M 21.59375 -4.625 C 24.300781 -4.625 26.523438 -5.316406 28.265625 -6.703125 C 30.015625 -8.097656 31.304688 -9.925781 32.140625 -12.1875 C 32.984375 -14.445312 33.40625 -16.894531 33.40625 -19.53125 C 33.40625 -22.164062 32.984375 -24.625 32.140625 -26.90625 C 31.304688 -29.1875 30.015625 -31.03125 28.265625 -32.4375 C 26.523438 -33.84375 24.300781 -34.546875 21.59375 -34.546875 C 18.882812 -34.546875 16.65625 -33.84375 14.90625 -32.4375 C 13.15625 -31.03125 11.859375 -29.1875 11.015625 -26.90625 C 10.179688 -24.625 9.765625 -22.164062 9.765625 -19.53125 C 9.765625 -16.894531 10.179688 -14.445312 11.015625 -12.1875 C 11.859375 -9.925781 13.15625 -8.097656 14.90625 -6.703125 C 16.65625 -5.316406 18.882812 -4.625 21.59375 -4.625 Z M 21.59375 -4.625 "/></g></g></g><g fill="#ffffff" fill-opacity="1"><g transform="translate(370.741726, 229.834134)"><g><path d="M 11.609375 -23.75 L 11.609375 0 L 5.546875 0 L 5.546875 -39.484375 L 11.40625 -39.484375 L 11.40625 -33.3125 L 11.921875 -33.3125 C 12.847656 -35.3125 14.253906 -36.921875 16.140625 -38.140625 C 18.023438 -39.367188 20.457031 -39.984375 23.4375 -39.984375 C 27.425781 -39.984375 30.648438 -38.757812 33.109375 -36.3125 C 35.566406 -33.863281 36.796875 -30.117188 36.796875 -25.078125 L 36.796875 0 L 30.734375 0 L 30.734375 -24.671875 C 30.734375 -27.773438 29.925781 -30.195312 28.3125 -31.9375 C 26.707031 -33.675781 24.5 -34.546875 21.6875 -34.546875 C 18.789062 -34.546875 16.382812 -33.601562 14.46875 -31.71875 C 12.5625 -29.84375 11.609375 -27.1875 11.609375 -23.75 Z M 11.609375 -23.75 "/></g></g></g><g fill="#ffffff" fill-opacity="1"><g transform="translate(413.092778, 229.834134)"><g><path d="M 22.109375 0.828125 C 18.296875 0.828125 15.015625 -0.015625 12.265625 -1.703125 C 9.515625 -3.390625 7.398438 -5.753906 5.921875 -8.796875 C 4.441406 -11.835938 3.703125 -15.382812 3.703125 -19.4375 C 3.703125 -23.476562 4.441406 -27.046875 5.921875 -30.140625 C 7.398438 -33.234375 9.472656 -35.644531 12.140625 -37.375 C 14.804688 -39.113281 17.921875 -39.984375 21.484375 -39.984375 C 23.546875 -39.984375 25.578125 -39.640625 27.578125 -38.953125 C 29.578125 -38.273438 31.398438 -37.164062 33.046875 -35.625 C 34.691406 -34.09375 36.003906 -32.066406 36.984375 -29.546875 C 37.960938 -27.035156 38.453125 -23.9375 38.453125 -20.25 L 38.453125 -17.6875 L 9.796875 -17.6875 C 9.929688 -13.46875 11.125 -10.234375 13.375 -7.984375 C 15.625 -5.742188 18.535156 -4.625 22.109375 -4.625 C 24.484375 -4.625 26.523438 -5.132812 28.234375 -6.15625 C 29.953125 -7.1875 31.195312 -8.734375 31.96875 -10.796875 L 37.828125 -9.15625 C 36.898438 -6.164062 35.050781 -3.753906 32.28125 -1.921875 C 29.507812 -0.0859375 26.117188 0.828125 22.109375 0.828125 Z M 9.796875 -22.921875 L 32.28125 -22.921875 C 32.28125 -26.265625 31.300781 -29.035156 29.34375 -31.234375 C 27.394531 -33.441406 24.773438 -34.546875 21.484375 -34.546875 C 19.171875 -34.546875 17.164062 -34.003906 15.46875 -32.921875 C 13.769531 -31.835938 12.429688 -30.410156 11.453125 -28.640625 C 10.484375 -26.867188 9.929688 -24.960938 9.796875 -22.921875 Z M 9.796875 -22.921875 "/></g></g></g><g fill="#ffffff" fill-opacity="1"><g transform="translate(170.317815, 272.805996)"><g><path d="M 21.59375 0.828125 C 18.03125 0.828125 14.90625 -0.0195312 12.21875 -1.71875 C 9.539062 -3.414062 7.453125 -5.789062 5.953125 -8.84375 C 4.453125 -11.894531 3.703125 -15.457031 3.703125 -19.53125 C 3.703125 -23.644531 4.453125 -27.234375 5.953125 -30.296875 C 7.453125 -33.367188 9.539062 -35.75 12.21875 -37.4375 C 14.90625 -39.132812 18.03125 -39.984375 21.59375 -39.984375 C 25.15625 -39.984375 28.273438 -39.132812 30.953125 -37.4375 C 33.640625 -35.75 35.734375 -33.367188 37.234375 -30.296875 C 38.734375 -27.234375 39.484375 -23.644531 39.484375 -19.53125 C 39.484375 -15.457031 38.734375 -11.894531 37.234375 -8.84375 C 35.734375 -5.789062 33.640625 -3.414062 30.953125 -1.71875 C 28.273438 -0.0195312 25.15625 0.828125 21.59375 0.828125 Z M 21.59375 -4.625 C 24.300781 -4.625 26.523438 -5.316406 28.265625 -6.703125 C 30.015625 -8.097656 31.304688 -9.925781 32.140625 -12.1875 C 32.984375 -14.445312 33.40625 -16.894531 33.40625 -19.53125 C 33.40625 -22.164062 32.984375 -24.625 32.140625 -26.90625 C 31.304688 -29.1875 30.015625 -31.03125 28.265625 -32.4375 C 26.523438 -33.84375 24.300781 -34.546875 21.59375 -34.546875 C 18.882812 -34.546875 16.65625 -33.84375 14.90625 -32.4375 C 13.15625 -31.03125 11.859375 -29.1875 11.015625 -26.90625 C 10.179688 -24.625 9.765625 -22.164062 9.765625 -19.53125 C 9.765625 -16.894531 10.179688 -14.445312 11.015625 -12.1875 C 11.859375 -9.925781 13.15625 -8.097656 14.90625 -6.703125 C 16.65625 -5.316406 18.882812 -4.625 21.59375 -4.625 Z M 21.59375 -4.625 "/></g></g></g><g fill="#ffffff" fill-opacity="1"><g transform="translate(213.491218, 272.805996)"><g><path d="M 11.609375 -23.75 L 11.609375 0 L 5.546875 0 L 5.546875 -39.484375 L 11.40625 -39.484375 L 11.40625 -33.3125 L 11.921875 -33.3125 C 12.847656 -35.3125 14.253906 -36.921875 16.140625 -38.140625 C 18.023438 -39.367188 20.457031 -39.984375 23.4375 -39.984375 C 27.425781 -39.984375 30.648438 -38.757812 33.109375 -36.3125 C 35.566406 -33.863281 36.796875 -30.117188 36.796875 -25.078125 L 36.796875 0 L 30.734375 0 L 30.734375 -24.671875 C 30.734375 -27.773438 29.925781 -30.195312 28.3125 -31.9375 C 26.707031 -33.675781 24.5 -34.546875 21.6875 -34.546875 C 18.789062 -34.546875 16.382812 -33.601562 14.46875 -31.71875 C 12.5625 -29.84375 11.609375 -27.1875 11.609375 -23.75 Z M 11.609375 -23.75 "/></g></g></g><g fill="#ffffff" fill-opacity="1"><g transform="translate(255.84227, 272.805996)"><g><path d="M 33.515625 -30.640625 L 28.0625 -29.09375 C 27.53125 -30.46875 26.640625 -31.753906 25.390625 -32.953125 C 24.140625 -34.148438 22.1875 -34.75 19.53125 -34.75 C 17.113281 -34.75 15.101562 -34.195312 13.5 -33.09375 C 11.90625 -31.988281 11.109375 -30.585938 11.109375 -28.890625 C 11.109375 -27.378906 11.65625 -26.1875 12.75 -25.3125 C 13.84375 -24.4375 15.554688 -23.707031 17.890625 -23.125 L 23.75 -21.6875 C 30.738281 -19.976562 34.234375 -16.414062 34.234375 -11 C 34.234375 -8.738281 33.585938 -6.71875 32.296875 -4.9375 C 31.003906 -3.15625 29.195312 -1.75 26.875 -0.71875 C 24.5625 0.3125 21.875 0.828125 18.8125 0.828125 C 14.789062 0.828125 11.457031 -0.046875 8.8125 -1.796875 C 6.175781 -3.546875 4.503906 -6.097656 3.796875 -9.453125 L 9.5625 -10.890625 C 10.644531 -6.640625 13.691406 -4.515625 18.703125 -4.515625 C 21.535156 -4.515625 23.785156 -5.117188 25.453125 -6.328125 C 27.128906 -7.535156 27.96875 -8.988281 27.96875 -10.6875 C 27.96875 -13.476562 26.015625 -15.332031 22.109375 -16.25 L 15.53125 -17.78125 C 11.90625 -18.644531 9.25 -19.976562 7.5625 -21.78125 C 5.875 -23.59375 5.03125 -25.859375 5.03125 -28.578125 C 5.03125 -30.804688 5.660156 -32.773438 6.921875 -34.484375 C 8.179688 -36.203125 9.90625 -37.546875 12.09375 -38.515625 C 14.28125 -39.492188 16.757812 -39.984375 19.53125 -39.984375 C 23.4375 -39.984375 26.503906 -39.125 28.734375 -37.40625 C 30.972656 -35.695312 32.566406 -33.441406 33.515625 -30.640625 Z M 33.515625 -30.640625 "/></g></g></g><g fill="#ffffff" fill-opacity="1"><g transform="translate(293.670385, 272.805996)"><g><path d="M 22.71875 -39.484375 L 22.71875 -34.34375 L 14.296875 -34.34375 L 14.296875 -11.3125 C 14.296875 -9.59375 14.546875 -8.304688 15.046875 -7.453125 C 15.554688 -6.609375 16.207031 -6.046875 17 -5.765625 C 17.800781 -5.484375 18.644531 -5.34375 19.53125 -5.34375 C 20.195312 -5.34375 20.742188 -5.378906 21.171875 -5.453125 C 21.609375 -5.535156 21.953125 -5.601562 22.203125 -5.65625 L 23.4375 -0.203125 C 23.03125 -0.046875 22.457031 0.109375 21.71875 0.265625 C 20.976562 0.429688 20.046875 0.515625 18.921875 0.515625 C 17.203125 0.515625 15.523438 0.144531 13.890625 -0.59375 C 12.253906 -1.332031 10.898438 -2.453125 9.828125 -3.953125 C 8.753906 -5.460938 8.21875 -7.363281 8.21875 -9.65625 L 8.21875 -34.34375 L 2.265625 -34.34375 L 2.265625 -39.484375 L 8.21875 -39.484375 L 8.21875 -48.9375 L 14.296875 -48.9375 L 14.296875 -39.484375 Z M 22.71875 -39.484375 "/></g></g></g><g fill="#ffffff" fill-opacity="1"><g transform="translate(319.985596, 272.805996)"><g><path d="M 5.546875 0 L 5.546875 -39.484375 L 11.40625 -39.484375 L 11.40625 -33.515625 L 11.828125 -33.515625 C 12.523438 -35.460938 13.816406 -37.046875 15.703125 -38.265625 C 17.585938 -39.484375 19.722656 -40.09375 22.109375 -40.09375 C 23.203125 -40.09375 24.160156 -39.960938 24.984375 -39.703125 C 25.804688 -39.453125 26.523438 -39.101562 27.140625 -38.65625 L 25.078125 -33.515625 C 24.648438 -33.734375 24.148438 -33.90625 23.578125 -34.03125 C 23.003906 -34.164062 22.34375 -34.234375 21.59375 -34.234375 C 18.707031 -34.234375 16.320312 -33.351562 14.4375 -31.59375 C 12.550781 -29.84375 11.609375 -27.640625 11.609375 -24.984375 L 11.609375 0 Z M 5.546875 0 "/></g></g></g><g fill="#ffffff" fill-opacity="1"><g transform="translate(347.739914, 272.805996)"><g><path d="M 30.4375 -16.140625 L 30.4375 -39.484375 L 36.5 -39.484375 L 36.5 0 L 30.4375 0 L 30.4375 -6.6875 L 30.015625 -6.6875 C 29.085938 -4.675781 27.644531 -2.972656 25.6875 -1.578125 C 23.738281 -0.179688 21.273438 0.515625 18.296875 0.515625 C 14.597656 0.515625 11.546875 -0.707031 9.140625 -3.15625 C 6.742188 -5.613281 5.546875 -9.359375 5.546875 -14.390625 L 5.546875 -39.484375 L 11.609375 -39.484375 L 11.609375 -14.796875 C 11.609375 -11.921875 12.414062 -9.625 14.03125 -7.90625 C 15.65625 -6.195312 17.726562 -5.34375 20.25 -5.34375 C 21.757812 -5.34375 23.296875 -5.726562 24.859375 -6.5 C 26.429688 -7.269531 27.753906 -8.453125 28.828125 -10.046875 C 29.898438 -11.640625 30.4375 -13.671875 30.4375 -16.140625 Z M 30.4375 -16.140625 "/></g></g></g><g fill="#ffffff" fill-opacity="1"><g transform="translate(389.782568, 272.805996)"><g><path d="M 21.59375 0.828125 C 17.882812 0.828125 14.691406 -0.046875 12.015625 -1.796875 C 9.347656 -3.546875 7.296875 -5.953125 5.859375 -9.015625 C 4.421875 -12.085938 3.703125 -15.59375 3.703125 -19.53125 C 3.703125 -23.539062 4.441406 -27.082031 5.921875 -30.15625 C 7.398438 -33.238281 9.472656 -35.644531 12.140625 -37.375 C 14.804688 -39.113281 17.921875 -39.984375 21.484375 -39.984375 C 24.265625 -39.984375 26.765625 -39.46875 28.984375 -38.4375 C 31.210938 -37.414062 33.035156 -35.976562 34.453125 -34.125 C 35.878906 -32.28125 36.765625 -30.125 37.109375 -27.65625 L 31.046875 -27.65625 C 30.585938 -29.457031 29.5625 -31.054688 27.96875 -32.453125 C 26.382812 -33.847656 24.257812 -34.546875 21.59375 -34.546875 C 18.039062 -34.546875 15.179688 -33.195312 13.015625 -30.5 C 10.847656 -27.800781 9.765625 -24.210938 9.765625 -19.734375 C 9.765625 -15.160156 10.832031 -11.5 12.96875 -8.75 C 15.113281 -6 17.988281 -4.625 21.59375 -4.625 C 23.957031 -4.625 25.984375 -5.234375 27.671875 -6.453125 C 29.359375 -7.671875 30.484375 -9.359375 31.046875 -11.515625 L 37.109375 -11.515625 C 36.765625 -9.179688 35.921875 -7.082031 34.578125 -5.21875 C 33.234375 -3.363281 31.457031 -1.890625 29.25 -0.796875 C 27.050781 0.285156 24.5 0.828125 21.59375 0.828125 Z M 21.59375 0.828125 "/></g></g></g><g fill="#ffffff" fill-opacity="1"><g transform="translate(430.18052, 272.805996)"><g><path d="M 22.71875 -39.484375 L 22.71875 -34.34375 L 14.296875 -34.34375 L 14.296875 -11.3125 C 14.296875 -9.59375 14.546875 -8.304688 15.046875 -7.453125 C 15.554688 -6.609375 16.207031 -6.046875 17 -5.765625 C 17.800781 -5.484375 18.644531 -5.34375 19.53125 -5.34375 C 20.195312 -5.34375 20.742188 -5.378906 21.171875 -5.453125 C 21.609375 -5.535156 21.953125 -5.601562 22.203125 -5.65625 L 23.4375 -0.203125 C 23.03125 -0.046875 22.457031 0.109375 21.71875 0.265625 C 20.976562 0.429688 20.046875 0.515625 18.921875 0.515625 C 17.203125 0.515625 15.523438 0.144531 13.890625 -0.59375 C 12.253906 -1.332031 10.898438 -2.453125 9.828125 -3.953125 C 8.753906 -5.460938 8.21875 -7.363281 8.21875 -9.65625 L 8.21875 -34.34375 L 2.265625 -34.34375 L 2.265625 -39.484375 L 8.21875 -39.484375 L 8.21875 -48.9375 L 14.296875 -48.9375 L 14.296875 -39.484375 Z M 22.71875 -39.484375 "/></g></g></g><g fill="#ffffff" fill-opacity="1"><g transform="translate(456.49573, 272.805996)"><g><path d="M 5.546875 0 L 5.546875 -39.484375 L 11.609375 -39.484375 L 11.609375 0 Z M 8.640625 -46.0625 C 7.453125 -46.0625 6.429688 -46.460938 5.578125 -47.265625 C 4.734375 -48.066406 4.3125 -49.035156 4.3125 -50.171875 C 4.3125 -51.296875 4.734375 -52.257812 5.578125 -53.0625 C 6.429688 -53.875 7.453125 -54.28125 8.640625 -54.28125 C 9.816406 -54.28125 10.828125 -53.875 11.671875 -53.0625 C 12.523438 -52.257812 12.953125 -51.296875 12.953125 -50.171875 C 12.953125 -49.035156 12.523438 -48.066406 11.671875 -47.265625 C 10.828125 -46.460938 9.816406 -46.0625 8.640625 -46.0625 Z M 8.640625 -46.0625 "/></g></g></g><g fill="#ffffff" fill-opacity="1"><g transform="translate(473.662301, 272.805996)"><g><path d="M 21.59375 0.828125 C 18.03125 0.828125 14.90625 -0.0195312 12.21875 -1.71875 C 9.539062 -3.414062 7.453125 -5.789062 5.953125 -8.84375 C 4.453125 -11.894531 3.703125 -15.457031 3.703125 -19.53125 C 3.703125 -23.644531 4.453125 -27.234375 5.953125 -30.296875 C 7.453125 -33.367188 9.539062 -35.75 12.21875 -37.4375 C 14.90625 -39.132812 18.03125 -39.984375 21.59375 -39.984375 C 25.15625 -39.984375 28.273438 -39.132812 30.953125 -37.4375 C 33.640625 -35.75 35.734375 -33.367188 37.234375 -30.296875 C 38.734375 -27.234375 39.484375 -23.644531 39.484375 -19.53125 C 39.484375 -15.457031 38.734375 -11.894531 37.234375 -8.84375 C 35.734375 -5.789062 33.640625 -3.414062 30.953125 -1.71875 C 28.273438 -0.0195312 25.15625 0.828125 21.59375 0.828125 Z M 21.59375 -4.625 C 24.300781 -4.625 26.523438 -5.316406 28.265625 -6.703125 C 30.015625 -8.097656 31.304688 -9.925781 32.140625 -12.1875 C 32.984375 -14.445312 33.40625 -16.894531 33.40625 -19.53125 C 33.40625 -22.164062 32.984375 -24.625 32.140625 -26.90625 C 31.304688 -29.1875 30.015625 -31.03125 28.265625 -32.4375 C 26.523438 -33.84375 24.300781 -34.546875 21.59375 -34.546875 C 18.882812 -34.546875 16.65625 -33.84375 14.90625 -32.4375 C 13.15625 -31.03125 11.859375 -29.1875 11.015625 -26.90625 C 10.179688 -24.625 9.765625 -22.164062 9.765625 -19.53125 C 9.765625 -16.894531 10.179688 -14.445312 11.015625 -12.1875 C 11.859375 -9.925781 13.15625 -8.097656 14.90625 -6.703125 C 16.65625 -5.316406 18.882812 -4.625 21.59375 -4.625 Z M 21.59375 -4.625 "/></g></g></g><g fill="#ffffff" fill-opacity="1"><g transform="translate(516.835704, 272.805996)"><g><path d="M 11.609375 -23.75 L 11.609375 0 L 5.546875 0 L 5.546875 -39.484375 L 11.40625 -39.484375 L 11.40625 -33.3125 L 11.921875 -33.3125 C 12.847656 -35.3125 14.253906 -36.921875 16.140625 -38.140625 C 18.023438 -39.367188 20.457031 -39.984375 23.4375 -39.984375 C 27.425781 -39.984375 30.648438 -38.757812 33.109375 -36.3125 C 35.566406 -33.863281 36.796875 -30.117188 36.796875 -25.078125 L 36.796875 0 L 30.734375 0 L 30.734375 -24.671875 C 30.734375 -27.773438 29.925781 -30.195312 28.3125 -31.9375 C 26.707031 -33.675781 24.5 -34.546875 21.6875 -34.546875 C 18.789062 -34.546875 16.382812 -33.601562 14.46875 -31.71875 C 12.5625 -29.84375 11.609375 -27.1875 11.609375 -23.75 Z M 11.609375 -23.75 "/></g></g></g><g fill="#e4cf1b" fill-opacity="1"><g transform="translate(22.22542, 286.586828)"><g><path d="M 84.984375 2.203125 C 71.523438 2.203125 59.535156 -0.878906 49.015625 -7.046875 C 38.492188 -13.210938 30.253906 -22.238281 24.296875 -34.125 C 18.335938 -46.007812 15.359375 -60.265625 15.359375 -76.890625 C 15.359375 -93.503906 18.335938 -107.753906 24.296875 -119.640625 C 30.253906 -131.523438 38.492188 -140.550781 49.015625 -146.71875 C 59.535156 -152.894531 71.523438 -155.984375 84.984375 -155.984375 C 99.359375 -155.984375 111.3125 -153.265625 120.84375 -147.828125 C 130.382812 -142.390625 137.257812 -134.203125 141.46875 -123.265625 L 129.890625 -115.59375 L 127.265625 -115.59375 C 123.054688 -124.351562 117.585938 -130.570312 110.859375 -134.25 C 104.128906 -137.9375 95.503906 -139.78125 84.984375 -139.78125 C 75.304688 -139.78125 66.71875 -137.625 59.21875 -133.3125 C 51.71875 -129 45.753906 -122.160156 41.328125 -112.796875 C 36.910156 -103.441406 34.703125 -91.472656 34.703125 -76.890625 C 34.703125 -62.304688 36.910156 -50.347656 41.328125 -41.015625 C 45.753906 -31.691406 51.71875 -24.875 59.21875 -20.5625 C 66.71875 -16.25 75.304688 -14.09375 84.984375 -14.09375 C 96.128906 -14.09375 105.242188 -16.597656 112.328125 -21.609375 C 119.410156 -26.628906 124.671875 -34.75 128.109375 -45.96875 L 130.734375 -45.96875 L 142.828125 -39.96875 C 139.179688 -26.363281 132.429688 -15.929688 122.578125 -8.671875 C 112.734375 -1.421875 100.203125 2.203125 84.984375 2.203125 Z M 84.984375 2.203125 "/></g></g></g></svg>